<svg xmlns="http://www.w3.org/2000/svg" width="32" height="32" viewBox="0 0 8.467 8.467"><g transform="translate(300.84 -673.231) scale(.26458)"><path fill="#fbda74" d="m -1107.5317,2560.4964 a 13.5,13.5 0 0 1 -13.5,13.5 13.5,13.5 0 0 1 -13.5,-13.5 13.5,13.5 0 0 1 13.5,-13.5 13.5,13.5 0 0 1 13.5,13.5 z"/><path fill="#a2dcec" d="M-1124.0317 2554.4964a1.4999835 1.4999835 0 0 1-1.5 1.5 1.4999835 1.4999835 0 0 1-1.5-1.5 1.4999835 1.4999835 0 0 1 1.5-1.5 1.4999835 1.4999835 0 0 1 1.5 1.5zM-1115.0317 2554.4964a1.4999835 1.4999835 0 0 1-1.5 1.5 1.4999835 1.4999835 0 0 1-1.5-1.5 1.4999835 1.4999835 0 0 1 1.5-1.5 1.4999835 1.4999835 0 0 1 1.5 1.5z"/><path fill="#fb848a" d="m -1129.5141,2560.9964 a 8.5,8.5 0 0 0 8.4824,8 8.5,8.5 0 0 0 8.4746,-8 z"/><rect width="16.218" height="3" x="-1129.14" y="2560.996" fill="#fff" paint-order="fill markers stroke"/><path fill="none" stroke="#586597" stroke-linecap="round" stroke-linejoin="round" d="m -1107.5317,2560.4964 a 13.5,13.5 0 0 1 -13.5,13.5 13.5,13.5 0 0 1 -13.5,-13.5 13.5,13.5 0 0 1 13.5,-13.5 13.5,13.5 0 0 1 13.5,13.5 z"/><path fill="none" stroke="#586597" stroke-linecap="round" stroke-linejoin="round" d="M-1129.5141 2560.9964a8.5 8.5 0 0 0 8.4824 8 8.5 8.5 0 0 0 8.4746-8zM-1124.0317 2554.4964a1.4999835 1.4999835 0 0 1-1.5 1.5 1.4999835 1.4999835 0 0 1-1.5-1.5 1.4999835 1.4999835 0 0 1 1.5-1.5 1.4999835 1.4999835 0 0 1 1.5 1.5zM-1115.0317 2554.4964a1.4999835 1.4999835 0 0 1-1.5 1.5 1.4999835 1.4999835 0 0 1-1.5-1.5 1.4999835 1.4999835 0 0 1 1.5-1.5 1.4999835 1.4999835 0 0 1 1.5 1.5z"/><path fill="none" stroke="#586597" d="m -1128.5317,2563.9964 h 15.25"/></g></svg>